# xmcd
#
# Track frame offsets: 
#        150
#        15992
#        30974
#        43687
#        59921
#        76032
#        93665
#        111229
#        125132
#        143316
#
# Disc length: 2213 seconds
#
# Revision: 0
# Processed by: cddbd v1.5.2PL0 Copyright (c) Steve Scherf et al.
# Submitted via: ExactAudioCopyFreeDBPlugin 1.0
#
DISCID=7a08a30a
DTITLE=Finnigan  (Kelly) - The Tales People Tel
DYEAR=2019
DGENRE=Soul
TTITLE0=I Don't Wanna Wait
TTITLE1=I'll Never Love Again
TTITLE2=Smoking And Drinking
TTITLE3=Every Time It Rains
TTITLE4=Catch Me I'm Falling
TTITLE5=Since I Don't Have You Anymore
TTITLE6=Impressions Of You
TTITLE7=I Called You Back Baby
TTITLE8=Freedom
TTITLE9=Can't Let Him Down
EXTD=
EXTT0=
EXTT1=
EXTT2=
EXTT3=
EXTT4=
EXTT5=
EXTT6=
EXTT7=
EXTT8=
EXTT9=
PLAYORDER=
